<svg width="18" height="18" viewBox="0 0 18 18" fill="none" xmlns="http://www.w3.org/2000/svg">
<g clip-path="url(#clip0_5050_299)">
<path d="M3.62743 14.291V13.091L3.27289 12.1637C2.67289 12.0273 2.23652 11.8637 2.04561 11.8092L2.2638 11.0728L1.63652 11.0182L1.58198 9.92734H2.59107L2.67289 9.68188H2.34561C2.12743 9.84552 1.8547 9.90007 1.58198 9.81825C1.52743 9.79098 1.44561 9.7637 1.39107 9.73643C1.39107 9.70916 1.3638 9.7637 1.3638 9.81825L1.41834 11.0182H1.17289C0.681978 10.991 0.463796 11.5637 0.545614 12.0546C0.600159 12.3819 0.354705 10.8273 1.03652 15.3546H1.20016V15.5182C1.20016 15.5728 1.22743 15.6273 1.28198 15.6273C1.33652 15.6273 1.3638 15.5728 1.3638 15.5182V15.3546H3.19107L3.62743 14.291Z" fill="#475569"/>
<path d="M4.39094 12.3546C4.11821 12.3274 3.84548 12.2728 3.57275 12.2183L3.98184 13.3637L4.39094 12.3546Z" fill="#475569"/>
<path d="M5.97282 14.1274L5.1001 16.3365L5.42737 17.2093C5.59101 17.6456 6.05464 17.8365 6.43646 17.6729C6.84555 17.5093 7.06373 17.0729 6.9001 16.6638L5.97282 14.1274Z" fill="#475569"/>
<path d="M16.9365 11.2911H16.391L16.4456 10.0911C16.4456 10.0092 16.391 9.95469 16.3092 9.95469H16.2547C16.2001 10.0638 16.1183 10.1456 16.0092 10.2001H16.1728L16.1183 11.2911L14.8638 11.3183L14.8365 10.1729H15.1092C15.0274 10.0911 14.9456 10.0092 14.891 9.90015H14.7001C14.6456 9.90015 14.5638 9.95469 14.5638 10.0365L14.591 11.3183H14.4819L14.5365 15.6001H16.4183V15.7638C16.4183 15.8183 16.4728 15.8729 16.5274 15.8729C16.5819 15.8729 16.6365 15.8183 16.6365 15.7638V15.6001H16.8274C17.6728 10.7729 17.3728 12.4365 17.4274 12.082C17.4001 11.4274 16.9365 11.2911 16.9365 11.2911Z" fill="#475569"/>
<path d="M6.38208 12.3544C5.83663 12.4089 5.2639 12.4362 4.6639 12.3817C4.6639 12.4089 2.8639 16.8817 2.97299 16.6089C2.80936 17.018 3.00027 17.4817 3.40936 17.6453C3.81845 17.8089 4.28208 17.618 4.44572 17.2089C4.47299 17.1544 6.51845 12.0271 6.38208 12.3544Z" fill="#475569"/>
<path d="M5.34542 3.46365C6.19087 3.46365 6.89996 2.78184 6.89996 1.90911C6.89996 1.06365 6.21814 0.381836 5.34542 0.381836C4.49996 0.381836 3.81814 1.06365 3.81814 1.90911C3.79087 2.78184 4.49996 3.46365 5.34542 3.46365Z" fill="#475569"/>
<path d="M12.6546 3.38204C13.5132 3.38204 14.2092 2.68605 14.2092 1.82749C14.2092 0.968943 13.5132 0.272949 12.6546 0.272949C11.7961 0.272949 11.1001 0.968943 11.1001 1.82749C11.1001 2.68605 11.7961 3.38204 12.6546 3.38204Z" fill="#475569"/>
<path d="M15.0546 9.70886C15.1092 9.98158 15.4092 10.1725 15.6819 10.0907C15.9546 10.0361 16.1455 9.73613 16.0637 9.4634C14.4001 2.48158 15.191 5.83613 14.9728 4.88158C14.9455 4.71795 14.8092 4.58159 14.6455 4.52704C14.6455 4.52704 14.6455 4.52704 14.6182 4.52704C13.2273 3.59977 11.8637 3.54522 10.6092 4.47249C10.4455 4.52704 10.3092 4.69068 10.2819 4.85431L9.19097 10.3907C9.13642 10.6907 9.32733 10.9634 9.60006 11.0179C9.90006 11.0725 10.1728 10.8816 10.2273 10.6089L10.691 8.20886C10.9364 10.9361 10.8546 10.8543 10.9637 10.9907L10.4728 16.7998C10.4455 17.2361 10.7728 17.6179 11.2092 17.6452C11.591 17.6998 12.0273 17.3725 12.0546 16.9089C12.1092 16.3089 11.8637 19.0634 12.5455 11.0725H12.5728L12.6546 16.8816C12.6546 17.3179 13.0092 17.6725 13.4455 17.6725C13.8819 17.6725 14.2364 17.3179 14.2364 16.8543C14.1273 9.4634 14.1546 11.8634 14.1546 11.3452V10.9907C14.2092 10.9361 14.2637 10.8543 14.2637 10.7725L14.3182 10.1452L14.5092 7.6634C14.591 7.71795 15.0819 9.84522 15.0546 9.70886Z" fill="#475569"/>
<path d="M8.75481 8.20921C8.75481 8.20921 8.70027 8.18194 8.5639 8.18194L8.50936 7.60921L8.78209 7.4183C9.02754 7.25467 9.08209 6.92739 8.91845 6.68194C8.75481 6.43649 8.42754 6.38194 8.18209 6.54558L7.99118 6.68194C7.44572 4.33648 7.50027 4.4183 7.39118 4.25467C7.30936 4.1183 7.14572 4.03648 6.98209 4.03648C5.78209 3.68194 4.60936 3.65467 3.49118 4.03648C3.4639 4.03648 3.273 4.03648 3.08209 4.22739C3.00027 4.33648 3.13663 3.98194 1.33663 8.89103C1.22754 9.16376 1.3639 9.46376 1.6639 9.57285C1.93663 9.68194 2.23663 9.54558 2.34572 9.24558C2.64572 8.42739 3.573 5.86376 3.51845 6.02739L3.62754 7.28194C3.51845 7.60921 3.98209 6.08194 2.64572 10.5274C2.64572 10.5547 2.29118 11.7001 2.31845 11.6183C4.20027 12.2456 6.32754 12.3819 8.12754 11.6183L6.81845 7.28194L6.873 6.65467L7.11845 7.66376C7.20027 7.96376 7.52754 8.15467 7.773 8.04558L7.82754 8.50921C7.82754 8.50921 7.80027 8.50921 7.80027 8.53649C7.80027 8.53649 7.74572 8.9183 7.71845 9.30012C7.69118 9.73649 7.74572 10.2001 7.99118 10.1728C8.04572 10.1728 8.61845 10.2001 8.78209 9.95467C8.78209 9.95467 9.24572 9.84558 9.24572 9.62739L8.75481 8.20921ZM7.99118 8.42739L7.93663 8.0183C7.99118 7.99103 8.40027 7.69103 8.373 7.7183L8.42754 8.20921C8.20936 8.26376 8.01845 8.40012 7.99118 8.42739Z" fill="#475569"/>
</g>
<defs>
<clipPath id="clip0_5050_299">
<rect width="18" height="18" fill="white"/>
</clipPath>
</defs>
</svg>
