<svg width="49" height="48" viewBox="0 0 49 48" fill="none" xmlns="http://www.w3.org/2000/svg">
<path d="M29.2994 4.96548C29.2994 4.5265 29.125 4.1055 28.8146 3.79509C28.5042 3.48469 28.0832 3.3103 27.6442 3.3103H16.058C15.619 3.3103 15.198 3.48469 14.8876 3.79509C14.5772 4.1055 14.4028 4.5265 14.4028 4.96548V9.93099H29.2994V4.96548Z" fill="url(#paint0_linear_5042_303)"/>
<path d="M25.1612 0.827586C25.1612 0.608097 25.074 0.397597 24.9188 0.242394C24.7636 0.0871918 24.5531 0 24.3336 0H19.3681C19.1486 0 18.9381 0.0871918 18.7829 0.242394C18.6277 0.397597 18.5405 0.608097 18.5405 0.827586V1.65517H25.1612V0.827586Z" fill="url(#paint1_linear_5042_303)"/>
<path d="M13.94 11.5862C12.1074 13.5209 11.088 16.0857 11.0923 18.7506V43.862C11.0936 44.9591 11.53 46.0108 12.3057 46.7865C13.0814 47.5623 14.1332 47.9987 15.2302 48H28.4716C29.5687 47.9987 30.6204 47.5623 31.3961 46.7865C32.1718 46.0108 32.6082 44.9591 32.6095 43.862V18.7506C32.6139 16.0857 31.5944 13.5209 29.7618 11.5862H13.94Z" fill="url(#paint2_linear_5042_303)"/>
<path d="M34.6786 4.13794H30.8369C30.9114 4.40762 30.9509 4.68576 30.9544 4.96553V5.79311H34.6786C35.0078 5.79311 35.3236 5.9239 35.5564 6.1567C35.7892 6.38951 35.9199 6.70526 35.9199 7.03449C35.9199 7.36373 35.7892 7.67948 35.5564 7.91228C35.3236 8.14508 35.0078 8.27587 34.6786 8.27587H30.9544V9.93104H34.6786C35.4468 9.93104 36.1835 9.62587 36.7267 9.08266C37.2699 8.53945 37.5751 7.8027 37.5751 7.03449C37.5751 6.26628 37.2699 5.52953 36.7267 4.98632C36.1835 4.44311 35.4468 4.13794 34.6786 4.13794Z" fill="url(#paint3_linear_5042_303)"/>
<defs>
<linearGradient id="paint0_linear_5042_303" x1="14.4028" y1="6.62065" x2="29.2994" y2="6.62065" gradientUnits="userSpaceOnUse">
<stop stop-color="#EA0068"/>
<stop offset="1" stop-color="#F500CD" stop-opacity="0.960784"/>
</linearGradient>
<linearGradient id="paint1_linear_5042_303" x1="18.5405" y1="0.827586" x2="25.1612" y2="0.827586" gradientUnits="userSpaceOnUse">
<stop stop-color="#EA0068"/>
<stop offset="1" stop-color="#F500CD" stop-opacity="0.960784"/>
</linearGradient>
<linearGradient id="paint2_linear_5042_303" x1="11.0923" y1="29.7931" x2="32.6096" y2="29.7931" gradientUnits="userSpaceOnUse">
<stop stop-color="#EA0068"/>
<stop offset="1" stop-color="#F500CD" stop-opacity="0.960784"/>
</linearGradient>
<linearGradient id="paint3_linear_5042_303" x1="30.8369" y1="7.03449" x2="37.5751" y2="7.03449" gradientUnits="userSpaceOnUse">
<stop stop-color="#EA0068"/>
<stop offset="1" stop-color="#F500CD" stop-opacity="0.960784"/>
</linearGradient>
</defs>
</svg>
