<svg width="15" height="16" viewBox="0 0 15 16" fill="none" xmlns="http://www.w3.org/2000/svg">
<path d="M14.9997 5.14817V12.6852C14.9997 14.1477 13.814 15.3334 12.3515 15.3334H2.98116C1.51862 15.3334 0.333008 14.1477 0.333008 12.6852V5.14817H14.9997ZM3.79597 10.4445C3.23346 10.4445 2.77745 10.9004 2.77745 11.463C2.77745 12.0255 3.23346 12.4815 3.79597 12.4815C4.35849 12.4815 4.81449 12.0255 4.81449 11.463C4.81449 10.9004 4.35849 10.4445 3.79597 10.4445ZM7.66634 10.4445C7.10379 10.4445 6.64782 10.9004 6.64782 11.463C6.64782 12.0255 7.10379 12.4815 7.66634 12.4815C8.22889 12.4815 8.68486 12.0255 8.68486 11.463C8.68486 10.9004 8.22889 10.4445 7.66634 10.4445ZM3.79597 6.7778C3.23346 6.7778 2.77745 7.23377 2.77745 7.79632C2.77745 8.35886 3.23346 8.81483 3.79597 8.81483C4.35849 8.81483 4.81449 8.35886 4.81449 7.79632C4.81449 7.23377 4.35849 6.7778 3.79597 6.7778ZM7.66634 6.7778C7.10379 6.7778 6.64782 7.23377 6.64782 7.79632C6.64782 8.35886 7.10379 8.81483 7.66634 8.81483C8.22889 8.81483 8.68486 8.35886 8.68486 7.79632C8.68486 7.23377 8.22889 6.7778 7.66634 6.7778ZM11.5367 6.7778C10.9742 6.7778 10.5182 7.23377 10.5182 7.79632C10.5182 8.35886 10.9742 8.81483 11.5367 8.81483C12.0993 8.81483 12.5552 8.35886 12.5552 7.79632C12.5552 7.23377 12.0993 6.7778 11.5367 6.7778ZM12.3515 0.666687C13.814 0.666687 14.9997 1.8523 14.9997 3.31484V3.92595H0.333008V3.31484C0.333008 1.8523 1.51862 0.666687 2.98116 0.666687H12.3515Z" fill="#E9005C"/>
</svg>
