<svg width="88" height="88" viewBox="0 0 88 88" fill="none" xmlns="http://www.w3.org/2000/svg">
<rect width="88" height="88" rx="44" fill="#E8AC12"/>
<path d="M50 58.9775C49.238 59.2835 48.4505 59.54 47.636 59.7275L47.306 64.0265C47.264 64.5755 46.805 65 46.2545 65H41.744C41.1935 65 40.736 64.5755 40.694 64.028L40.364 59.729C38.597 59.3225 36.9455 58.625 35.453 57.6905L32.1755 60.5C31.757 60.8585 31.1345 60.8345 30.7445 60.4445L27.5555 57.2555C27.1655 56.8655 27.143 56.243 27.5 55.8245L30.3095 52.547C29.3765 51.0545 28.679 49.403 28.271 47.636L23.972 47.306C23.4245 47.264 23 46.805 23 46.2545V41.744C23 41.1935 23.4245 40.736 23.972 40.694L28.271 40.364C28.6775 38.597 29.375 36.9455 30.3095 35.453L27.5015 32.1755C27.143 31.7585 27.167 31.1345 27.5555 30.746L30.7445 27.557C31.133 27.1685 31.757 27.1445 32.1755 27.5015L35.453 30.311C36.9455 29.378 38.597 28.6805 40.364 28.2725L40.694 23.9735C40.736 23.4245 41.195 23 41.7455 23H46.256C46.8065 23 47.264 23.4245 47.306 23.972L47.3255 24.2225C46.1615 26.009 45.5 28.115 45.5 30.3425C45.5 32.1455 45.926 33.8735 46.7045 35.4155C45.851 35.1455 44.942 35 44 35C39.029 35 35 39.029 35 44C35 48.971 39.029 53 44 53C46.3085 53 48.407 52.124 50 50.6945V58.9775Z" fill="white"/>
<path d="M60.5 37.6837V61.2502C60.5 63.3217 58.8215 65.0002 56.75 65.0002C54.6785 65.0002 53 63.3217 53 61.2502V37.6837C50.33 36.3172 48.5 33.5467 48.5 30.3412C48.5 27.2437 50.21 24.5497 52.736 23.1397C52.8515 23.0767 53 23.1667 53 23.2987V32.0002L56.75 33.5002L60.5 32.0002V23.2987C60.5 23.1667 60.6485 23.0767 60.764 23.1412C63.29 24.5512 65 27.2437 65 30.3427C65 33.5467 63.17 36.3187 60.5 37.6837Z" fill="white"/>
</svg>
