<svg width="88" height="88" viewBox="0 0 88 88" fill="none" xmlns="http://www.w3.org/2000/svg">
<rect width="88" height="88" rx="44" fill="#E8AC12"/>
<path d="M58.4 24.7998V32.1246C58.4 33.892 56.9672 35.3248 55.1998 35.3248C53.4325 35.3248 52.0002 33.892 52.0002 32.1246V24.7998C49.1782 26.0358 47.2002 28.8467 47.2002 32.1246C47.2002 34.7324 48.4688 37.0278 50.3998 38.4889V58.3998C50.3998 61.0499 52.5498 63.1998 55.1998 63.1998C57.8499 63.1998 59.9998 61.0499 59.9998 58.3998V38.4889C61.9328 37.0278 63.2 34.7324 63.2 32.1246C63.2 28.8452 61.2234 26.0358 58.4 24.7998Z" fill="white"/>
<path d="M47.2001 47.2001V40.7998H29.6C26.9499 40.7998 24.8 42.9483 24.8 45.5984L24.8014 45.5998L24.8 56.8001H28.0001V61.6001C28.0001 62.4814 28.7201 63.2 29.6 63.2H32.8001C33.6795 63.2 34.4 62.4814 34.4 61.6001V56.8001H47.2001V50.3998H35.9998V47.2001H47.2001ZM31.1998 50.8001C30.0968 50.8001 29.2001 49.9049 29.2001 48.8C29.2001 47.6936 30.0968 46.7998 31.1998 46.7998C32.3033 46.7998 33.2 47.6936 33.2 48.8C33.2 49.9049 32.3033 50.8001 31.1998 50.8001Z" fill="white"/>
<path d="M44 32.1246C44 30.6808 44.3034 29.2936 44.8189 27.9995H34.903C33.5782 27.9995 32.3782 28.5371 31.5094 29.4059C31.0688 29.848 30.7126 30.376 30.4707 30.9621L27.7208 37.5995H45.4506C44.5141 35.9512 44 34.0826 44 32.1246Z" fill="white"/>
</svg>
