<svg width="88" height="88" viewBox="0 0 88 88" fill="none" xmlns="http://www.w3.org/2000/svg">
<rect width="88" height="88" rx="44" fill="#E8AC12"/>
<path d="M59.9322 39.9322C59.9322 31.1471 52.7844 24 44 24C35.2156 24 28.0678 31.1471 28.0678 39.9322C28.0678 48.7166 35.2156 55.8644 44 55.8644C52.7844 55.8644 59.9322 48.7166 59.9322 39.9322ZM44 38.9153C46.4298 38.9153 48.4068 40.8922 48.4068 43.322C48.4068 45.4004 46.956 47.1368 45.0169 47.5987V48.0678C45.0169 48.6292 44.5614 49.0847 44 49.0847C43.4386 49.0847 42.983 48.6292 42.983 48.0678V47.5987C41.044 47.1368 39.5932 45.4004 39.5932 43.322C39.5932 42.7606 40.0487 42.3051 40.6102 42.3051C41.1716 42.3051 41.6271 42.7606 41.6271 43.322C41.6271 44.6303 42.6917 45.6949 44 45.6949C45.3082 45.6949 46.3729 44.6303 46.3729 43.322C46.3729 42.0138 45.3082 40.9492 44 40.9492C41.5702 40.9492 39.5932 38.9722 39.5932 36.5424C39.5932 34.464 41.044 32.7276 42.983 32.2657V31.7966C42.983 31.2352 43.4386 30.7797 44 30.7797C44.5614 30.7797 45.0169 31.2352 45.0169 31.7966V32.2657C46.956 32.7276 48.4068 34.464 48.4068 36.5424C48.4068 37.1038 47.9513 37.5593 47.3898 37.5593C46.8284 37.5593 46.3729 37.1038 46.3729 36.5424C46.3729 35.2341 45.3082 34.1695 44 34.1695C42.6917 34.1695 41.6271 35.2341 41.6271 36.5424C41.6271 37.8506 42.6917 38.9153 44 38.9153Z" fill="white"/>
<path d="M29.0305 49.8574L24.2983 54.5896C24.0271 54.8608 23.9322 55.2676 24.0542 55.6336C24.1763 55.9998 24.4881 56.2574 24.8678 56.3116L30.8339 57.1658L31.6881 63.132C31.7424 63.5117 32 63.8235 32.3661 63.9455C32.4746 63.9862 32.5831 63.9998 32.6915 63.9998C32.9627 63.9998 33.2203 63.8913 33.4102 63.7014L39.7288 57.3828C35.2814 56.2981 31.4848 53.5591 29.0305 49.8574Z" fill="white"/>
<path d="M63.7017 54.5896L58.9695 49.8574C56.5152 53.5591 52.7186 56.2981 48.2712 57.3828L54.5898 63.7014C54.7797 63.8913 55.0373 63.9998 55.3085 63.9998C55.4169 63.9998 55.5254 63.9862 55.6339 63.9455C56 63.8235 56.2576 63.5117 56.3119 63.132L57.1661 57.1658L63.1322 56.3116C63.5119 56.2574 63.8237 55.9998 63.9458 55.6336C64.0678 55.2676 63.9728 54.8608 63.7017 54.5896Z" fill="white"/>
</svg>
