<svg width="88" height="88" viewBox="0 0 88 88" fill="none" xmlns="http://www.w3.org/2000/svg">
<rect width="88" height="88" rx="44" fill="#E8AC12"/>
<path d="M59.75 28.2501C53.7762 28.2501 47.8205 25.4518 45.2653 21.4438C45.1298 21.231 44.9428 21.0559 44.7216 20.9345C44.5005 20.8131 44.2523 20.7495 44 20.7495C43.7477 20.7495 43.4995 20.8131 43.2784 20.9345C43.0572 21.0559 42.8702 21.231 42.7347 21.4438C40.1795 25.4518 34.223 28.2501 28.25 28.2501C27.8522 28.2501 27.4706 28.4081 27.1893 28.6894C26.908 28.9707 26.75 29.3522 26.75 29.7501V44.7501C26.75 55.1421 36.8263 62.5026 43.6362 64.2051C43.875 64.2651 44.125 64.2651 44.3638 64.2051C51.1737 62.5026 61.25 55.1421 61.25 44.7501V29.7501C61.25 29.3522 61.092 28.9707 60.8107 28.6894C60.5294 28.4081 60.1478 28.2501 59.75 28.2501ZM44 53.0001C41.9233 53.0001 39.8932 52.3843 38.1665 51.2305C36.4398 50.0767 35.094 48.4369 34.2993 46.5182C33.5045 44.5996 33.2966 42.4884 33.7018 40.4516C34.1069 38.4148 35.1069 36.5439 36.5754 35.0754C38.0438 33.607 39.9148 32.607 41.9516 32.2018C43.9884 31.7967 46.0996 32.0046 48.0182 32.7993C49.9368 33.5941 51.5767 34.9399 52.7304 36.6666C53.8842 38.3933 54.5 40.4234 54.5 42.5001C54.5 45.2848 53.3938 47.9556 51.4246 49.9247C49.4555 51.8938 46.7848 53.0001 44 53.0001ZM49.5605 36.9396C49.8417 37.2209 49.9997 37.6023 49.9997 38.0001C49.9997 38.3978 49.8417 38.7793 49.5605 39.0606L40.5605 48.0606C40.2793 48.3419 39.8978 48.5 39.5 48.5001C39.4196 48.4998 39.3394 48.4935 39.26 48.4813C39.0253 48.4433 38.803 48.35 38.6115 48.2092C38.4199 48.0683 38.2646 47.884 38.1583 47.6713L36.6583 44.6713C36.4802 44.3155 36.4509 43.9035 36.5766 43.526C36.7023 43.1484 36.9729 42.8363 37.3287 42.6583C37.6846 42.4803 38.0966 42.4509 38.4741 42.5767C38.8516 42.7024 39.1637 42.973 39.3417 43.3288L39.911 44.4681L47.4395 36.9396C47.7208 36.6584 48.1023 36.5004 48.5 36.5004C48.8977 36.5004 49.2792 36.6584 49.5605 36.9396Z" fill="white"/>
</svg>
