<svg width="49" height="48" viewBox="0 0 49 48" fill="none" xmlns="http://www.w3.org/2000/svg">
<path d="M11.6665 5.5C11.6665 4.67158 10.9949 4 10.1665 4C9.33808 4 8.6665 4.67158 8.6665 5.5C8.6665 8.04132 10.5226 9.3344 11.6779 10.1393L11.8063 10.2288C13.1662 11.1808 13.6665 11.6378 13.6665 12.5C13.6665 13.3284 14.3381 14 15.1665 14C15.9949 14 16.6665 13.3284 16.6665 12.5C16.6665 9.95868 14.8104 8.6656 13.6551 7.86074L13.5267 7.77116C12.1668 6.81922 11.6665 6.36222 11.6665 5.5ZM10.3094 16C8.29746 16 6.6665 17.631 6.6665 19.6429V28C6.6665 36.8366 13.8299 44 22.6665 44C29.3813 44 35.1299 39.8636 37.5035 34H40.1665C43.7563 34 46.6665 31.0898 46.6665 27.5C46.6665 23.9102 43.7563 21 40.1665 21H38.6665V19.6429C38.6665 17.631 37.0355 16 35.0237 16H10.3094ZM40.1665 31H38.3857C38.5701 30.0282 38.6665 29.0254 38.6665 28V24H40.1665C42.0995 24 43.6665 25.567 43.6665 27.5C43.6665 29.433 42.0995 31 40.1665 31ZM18.1665 4C18.9949 4 19.6665 4.67158 19.6665 5.5C19.6665 6.36222 20.1668 6.81922 21.5267 7.77116L21.6551 7.86074C22.8103 8.6656 24.6665 9.95868 24.6665 12.5C24.6665 13.3284 23.9949 14 23.1665 14C22.3381 14 21.6665 13.3284 21.6665 12.5C21.6665 11.6378 21.1663 11.1808 19.8063 10.2288L19.6779 10.1393C18.5226 9.3344 16.6665 8.04132 16.6665 5.5C16.6665 4.67158 17.3381 4 18.1665 4ZM27.6665 5.5C27.6665 4.67158 26.9949 4 26.1665 4C25.3381 4 24.6665 4.67158 24.6665 5.5C24.6665 8.04132 26.5227 9.3344 27.6779 10.1393L27.8063 10.2288C29.1663 11.1808 29.6665 11.6378 29.6665 12.5C29.6665 13.3284 30.3381 14 31.1665 14C31.9949 14 32.6665 13.3284 32.6665 12.5C32.6665 9.95868 30.8103 8.6656 29.6551 7.86074L29.5267 7.77116C28.1667 6.81922 27.6665 6.36222 27.6665 5.5Z" fill="url(#paint0_linear_5042_392)"/>
<defs>
<linearGradient id="paint0_linear_5042_392" x1="6.6665" y1="24" x2="46.6665" y2="24" gradientUnits="userSpaceOnUse">
<stop stop-color="#EA0068"/>
<stop offset="1" stop-color="#F500CD" stop-opacity="0.960784"/>
</linearGradient>
</defs>
</svg>
