<svg width="54" height="38" viewBox="0 0 54 38" fill="none" xmlns="http://www.w3.org/2000/svg">
<path d="M53.25 13.4619C53.25 16.9886 52.5688 20.3887 51.2267 23.5657C47.0226 33.6804 41.0936 37.8185 30.7719 37.8369C30.7701 37.8369 30.7701 37.8369 30.7682 37.8369C29.8746 37.8369 29.1056 37.2071 28.9297 36.3319C28.7539 35.4547 29.2209 34.5759 30.0467 34.2317C34.9943 32.1699 36.4809 29.7547 38.2224 24.7121H34.5C31.3982 24.7121 28.875 22.1889 28.875 19.0871V5.96191C28.875 2.8601 31.3982 0.336914 34.5 0.336914H47.5316C48.1687 0.336914 48.7639 0.661102 49.1081 1.19754C51.6094 5.08479 53.25 8.03829 53.25 13.4619ZM19.4066 0.336914H6.375C3.27319 0.336914 0.75 2.8601 0.75 5.96191V19.0869C0.75 22.1887 3.27319 24.7119 6.375 24.7119H10.0976C8.35631 29.7547 6.86944 32.1697 1.92188 34.2315C1.09613 34.5757 0.629062 35.4545 0.804937 36.3317C0.980625 37.2071 1.74975 37.8369 2.64337 37.8369H2.64713C12.9688 37.8185 18.8977 33.6804 23.1019 23.5657C24.4438 20.3887 25.125 16.9886 25.125 13.4619C25.125 8.03829 23.4844 5.08479 20.9831 1.19754C20.6389 0.661102 20.0438 0.336914 19.4066 0.336914Z" fill="#E8AC12"/>
</svg>
