<svg width="18" height="18" viewBox="0 0 18 18" fill="none" xmlns="http://www.w3.org/2000/svg">
<g clip-path="url(#clip0_5050_323)">
<path d="M9.78467 6.08947L12.0082 8.10266L12.8203 7.20543C13.7273 7.4284 14.7317 7.19313 15.4522 6.4726C15.9645 5.96027 16.5111 5.0074 16.8123 4.1016C17.2188 2.87865 17.1452 1.9437 16.5992 1.39783C16.0534 0.851892 15.1184 0.778205 13.8955 1.18479C12.9896 1.48594 12.0368 2.03251 11.5244 2.54488C10.8183 3.25092 10.5636 4.24995 10.7918 5.17741L9.78467 6.08947Z" fill="#475569"/>
<path d="M5.91584 9.59277L0.712296 14.3053C0.278363 14.6894 0.0191908 15.2416 0.00105018 15.8209C-0.0361451 17.0103 0.919437 17.9999 2.11373 17.9999C2.70056 17.9999 3.28545 17.7498 3.69453 17.2877L8.28794 12.2128L5.91584 9.59277Z" fill="#475569"/>
<path d="M17.9989 15.821C17.9808 15.2417 17.7217 14.6894 17.2877 14.3053C16.7573 13.8251 7.49104 5.43531 7.24294 5.2107C7.4876 4.3248 7.26312 3.33536 6.56815 2.64039C6.3325 2.40474 4.32817 0.400377 4.08226 0.154459C3.87631 -0.0514863 3.54243 -0.0514863 3.33649 0.154459C3.13054 0.360369 3.13054 0.694283 3.33649 0.900229L4.75346 2.31724L3.90823 3.16246L2.49122 1.74542C2.28531 1.53944 1.95144 1.53951 1.74546 1.74542C1.53951 1.95133 1.53951 2.28524 1.74546 2.49119L3.16243 3.90816L2.3172 4.75339L0.900229 3.33642C0.694318 3.13051 0.360404 3.13051 0.154459 3.33642C-0.0514863 3.54233 -0.0514863 3.87624 0.154459 4.08219C2.4701 6.39782 0.256201 4.18389 2.64036 6.56812C3.31785 7.24562 4.29797 7.49498 5.21067 7.24291C19.9842 23.5599 9.00649 11.4352 14.3053 17.2876C14.6894 17.7216 15.2417 17.9808 15.821 17.9989C17.0377 18.0373 18.037 17.038 17.9989 15.821Z" fill="#475569"/>
</g>
<defs>
<clipPath id="clip0_5050_323">
<rect width="18" height="18" fill="white"/>
</clipPath>
</defs>
</svg>
