<svg width="14" height="14" viewBox="0 0 14 14" fill="none" xmlns="http://www.w3.org/2000/svg">
<path d="M6.45372 10.8891L0.223657 4.65893C0.0794465 4.51483 0 4.32247 0 4.11737C0 3.91227 0.0794465 3.71991 0.223657 3.57581L0.682352 3.117C0.981244 2.81845 1.46703 2.81845 1.76547 3.117L6.9971 8.34864L12.2345 3.1112C12.3787 2.9671 12.571 2.88754 12.776 2.88754C12.9812 2.88754 13.1734 2.9671 13.3178 3.1112L13.7763 3.57001C13.9206 3.71422 14 3.90646 14 4.11157C14 4.31667 13.9206 4.50903 13.7763 4.65312L7.54059 10.8891C7.39592 11.0335 7.20277 11.1129 6.99744 11.1124C6.79131 11.1129 6.59827 11.0335 6.45372 10.8891Z" fill="white"/>
</svg>
