<svg width="18" height="18" viewBox="0 0 18 18" fill="none" xmlns="http://www.w3.org/2000/svg">
<g clip-path="url(#clip0_5039_98)">
<path d="M16.7587 12.4381C17.4789 12.8462 17.7466 13.7215 17.3884 14.537C17.1365 15.1468 16.7694 15.6828 16.3234 16.1288C15.0806 17.3716 13.2331 17.902 11.6296 17.3038C9.15679 16.3969 6.87928 14.9617 4.9434 13.0258C3.00756 11.09 1.60814 8.8289 0.701235 6.35608C-0.111246 4.17653 1.13899 1.55204 3.46936 0.595923C4.1421 0.315849 4.87014 0.450122 5.32243 0.902421C5.41684 0.996825 5.50009 1.10493 5.56691 1.22698L6.64851 3.18958C6.97004 3.76519 6.91253 4.50859 6.47282 5.10731L5.05364 7.0906L5.0147 7.10965C5.57211 8.52045 6.34464 9.72105 7.32996 10.7064C8.3091 11.6855 9.49947 12.4533 10.8934 13.0077L10.9125 12.9688L12.8967 11.5312C13.4931 11.1113 14.2389 11.034 14.8144 11.3555L16.7587 12.4381Z" fill="white"/>
</g>
<defs>
<clipPath id="clip0_5039_98">
<rect width="18" height="18" fill="white"/>
</clipPath>
</defs>
</svg>
