<svg width="20" height="20" viewBox="0 0 20 20" fill="none" xmlns="http://www.w3.org/2000/svg">
<path d="M5.80098 0H14.201C17.401 0 20.001 2.6 20.001 5.8V14.2C20.001 15.7383 19.3899 17.2135 18.3022 18.3012C17.2145 19.3889 15.7392 20 14.201 20H5.80098C2.60098 20 0.000976562 17.4 0.000976562 14.2V5.8C0.000976563 4.26174 0.612046 2.78649 1.69976 1.69878C2.78747 0.61107 4.26272 0 5.80098 0ZM5.60098 2C4.6462 2 3.73052 2.37928 3.05539 3.05442C2.38026 3.72955 2.00098 4.64522 2.00098 5.6V14.4C2.00098 16.39 3.61098 18 5.60098 18H14.401C15.3558 18 16.2714 17.6207 16.9466 16.9456C17.6217 16.2705 18.001 15.3548 18.001 14.4V5.6C18.001 3.61 16.391 2 14.401 2H5.60098ZM15.251 3.5C15.5825 3.5 15.9004 3.6317 16.1349 3.86612C16.3693 4.10054 16.501 4.41848 16.501 4.75C16.501 5.08152 16.3693 5.39946 16.1349 5.63388C15.9004 5.8683 15.5825 6 15.251 6C14.9195 6 14.6015 5.8683 14.3671 5.63388C14.1327 5.39946 14.001 5.08152 14.001 4.75C14.001 4.41848 14.1327 4.10054 14.3671 3.86612C14.6015 3.6317 14.9195 3.5 15.251 3.5ZM10.001 5C11.3271 5 12.5988 5.52678 13.5365 6.46447C14.4742 7.40215 15.001 8.67392 15.001 10C15.001 11.3261 14.4742 12.5979 13.5365 13.5355C12.5988 14.4732 11.3271 15 10.001 15C8.67489 15 7.40312 14.4732 6.46544 13.5355C5.52776 12.5979 5.00098 11.3261 5.00098 10C5.00098 8.67392 5.52776 7.40215 6.46544 6.46447C7.40312 5.52678 8.67489 5 10.001 5ZM10.001 7C9.20533 7 8.44226 7.31607 7.87965 7.87868C7.31705 8.44129 7.00098 9.20435 7.00098 10C7.00098 10.7956 7.31705 11.5587 7.87965 12.1213C8.44226 12.6839 9.20533 13 10.001 13C10.7966 13 11.5597 12.6839 12.1223 12.1213C12.6849 11.5587 13.001 10.7956 13.001 10C13.001 9.20435 12.6849 8.44129 12.1223 7.87868C11.5597 7.31607 10.7966 7 10.001 7Z" fill="#969698"/>
</svg>
