<svg width="32" height="33" viewBox="0 0 32 33" fill="none" xmlns="http://www.w3.org/2000/svg">
<path d="M16 3.04346C13.4288 3.04346 10.9154 3.80589 8.77759 5.23435C6.63975 6.66281 4.97351 8.69313 3.98957 11.0686C3.00563 13.444 2.74818 16.0579 3.24979 18.5796C3.7514 21.1014 4.98953 23.4178 6.80761 25.2358C8.6257 27.0539 10.9421 28.2921 13.4638 28.7937C15.9856 29.2953 18.5994 29.0378 20.9749 28.0539C23.3503 27.07 25.3806 25.4037 26.8091 23.2659C28.2376 21.128 29 18.6146 29 16.0435C28.996 12.5969 27.6251 9.29257 25.188 6.85545C22.7509 4.41834 19.4466 3.04743 16 3.04346ZM23.709 11.7485L13.769 21.7485C13.5825 21.9362 13.3291 22.0424 13.0644 22.0438C12.7998 22.0451 12.5454 21.9414 12.357 21.7555L8.298 17.7555C8.12589 17.5664 8.03271 17.3187 8.03761 17.0631C8.0425 16.8075 8.1451 16.5634 8.32433 16.3811C8.50356 16.1988 8.7458 16.0921 9.00128 16.0829C9.25676 16.0736 9.50607 16.1626 9.698 16.3315L13.048 19.6315L22.291 10.3435C22.383 10.2477 22.4931 10.1713 22.615 10.1185C22.7368 10.0658 22.8679 10.0379 23.0007 10.0364C23.1334 10.0348 23.2652 10.0598 23.3882 10.1097C23.5112 10.1597 23.623 10.2336 23.7172 10.3272C23.8113 10.4208 23.8859 10.5322 23.9365 10.655C23.9872 10.7777 24.0128 10.9093 24.0121 11.042C24.0113 11.1748 23.9841 11.3061 23.9321 11.4282C23.8801 11.5504 23.8042 11.6609 23.709 11.7535V11.7485Z" fill="#E8AC12"/>
</svg>
